<svg width="156" height="46" viewBox="0 0 156 46" fill="none" xmlns="http://www.w3.org/2000/svg">
<path d="M0.864 18.416H1.704C1.832 19.04 2.088 19.672 2.472 20.312C2.872 20.936 3.384 21.456 4.008 21.872C4.632 22.288 5.336 22.496 6.12 22.496C6.968 22.496 7.672 22.272 8.232 21.824C8.808 21.36 9.096 20.688 9.096 19.808C9.096 19.104 8.88 18.528 8.448 18.08C8.016 17.632 7.352 17.24 6.456 16.904L5.232 16.472C3.856 15.96 2.808 15.336 2.088 14.6C1.384 13.848 1.032 12.856 1.032 11.624C1.032 10.68 1.248 9.848 1.68 9.128C2.128 8.408 2.752 7.856 3.552 7.472C4.352 7.072 5.28 6.872 6.336 6.872C6.784 6.872 7.152 6.904 7.44 6.968C7.744 7.032 8.128 7.136 8.592 7.28C8.992 7.44 9.312 7.52 9.552 7.52C9.728 7.52 9.856 7.488 9.936 7.424C10.032 7.344 10.096 7.224 10.128 7.064H10.8L11.04 11.264H10.224C9.984 10.128 9.52 9.24 8.832 8.6C8.16 7.96 7.344 7.64 6.384 7.64C5.568 7.64 4.888 7.872 4.344 8.336C3.816 8.784 3.552 9.36 3.552 10.064C3.552 10.592 3.704 11.04 4.008 11.408C4.328 11.76 4.672 12.032 5.04 12.224C5.408 12.4 5.912 12.616 6.552 12.872L8.112 13.448C9.296 13.896 10.208 14.496 10.848 15.248C11.504 15.984 11.832 16.944 11.832 18.128C11.832 19.184 11.592 20.104 11.112 20.888C10.648 21.656 9.984 22.248 9.12 22.664C8.272 23.08 7.296 23.288 6.192 23.288C5.648 23.288 5.168 23.24 4.752 23.144C4.336 23.064 3.904 22.944 3.456 22.784C3.024 22.64 2.72 22.568 2.544 22.568C2.368 22.568 2.216 22.608 2.088 22.688C1.976 22.768 1.896 22.872 1.848 23H1.176L0.864 18.416ZM25.4243 21.272C25.4243 21.56 25.4563 21.768 25.5203 21.896C25.5843 22.024 25.7123 22.112 25.9043 22.16C26.0963 22.192 26.4163 22.208 26.8643 22.208V23H22.1123V21.464H22.0403C20.8723 22.68 19.5523 23.288 18.0803 23.288C16.9763 23.288 16.1283 22.984 15.5363 22.376C14.9443 21.752 14.6483 20.816 14.6483 19.568V13.856C14.6483 13.488 14.6003 13.248 14.5043 13.136C14.4243 13.008 14.2403 12.944 13.9523 12.944H13.1603V12.152L16.9763 11.6H18.0563V19.28C18.0563 20.16 18.2083 20.8 18.5123 21.2C18.8163 21.6 19.2563 21.8 19.8323 21.8C20.2003 21.8 20.5523 21.704 20.8883 21.512C21.2243 21.304 21.6003 21 22.0163 20.6V13.856C22.0163 13.488 21.9683 13.248 21.8723 13.136C21.7923 13.008 21.6083 12.944 21.3203 12.944H20.5283V12.152L24.3443 11.6H25.4243V21.272ZM36.2768 11.456C37.7328 11.456 38.8608 11.936 39.6608 12.896C40.4768 13.84 40.8848 15.232 40.8848 17.072C40.8848 19.104 40.3728 20.648 39.3488 21.704C38.3248 22.76 36.8928 23.288 35.0528 23.288C34.3488 23.288 33.7168 23.2 33.1568 23.024C32.5968 22.864 31.9968 22.616 31.3568 22.28L30.6848 23H29.5088V8.792C29.5088 8.392 29.4608 8.136 29.3648 8.024C29.2688 7.896 29.0448 7.832 28.6928 7.832H28.0208V7.016L31.8608 6.44H32.9168V12.656H32.9408C33.8848 11.856 34.9968 11.456 36.2768 11.456ZM34.8368 22.424C35.7008 22.424 36.3248 22.048 36.7088 21.296C37.1088 20.528 37.3088 19.272 37.3088 17.528C37.3088 14.376 36.4928 12.8 34.8608 12.8C34.5088 12.8 34.1808 12.896 33.8768 13.088C33.5728 13.28 33.2528 13.544 32.9168 13.88V21.512C33.5248 22.12 34.1648 22.424 34.8368 22.424ZM47.1182 23.288C46.3502 23.288 45.6222 23.152 44.9342 22.88C44.5502 22.752 44.2782 22.688 44.1182 22.688C43.8622 22.688 43.6462 22.8 43.4702 23.024H42.8942L42.6782 19.112H43.4462C43.6382 20.136 44.0462 20.944 44.6702 21.536C45.3102 22.128 46.0782 22.424 46.9742 22.424C47.5982 22.424 48.1102 22.28 48.5102 21.992C48.9262 21.688 49.1342 21.248 49.1342 20.672C49.1342 20.224 48.9902 19.872 48.7022 19.616C48.4142 19.36 47.9022 19.096 47.1662 18.824L45.8942 18.464C44.7742 18.08 43.9742 17.624 43.4942 17.096C43.0142 16.552 42.7742 15.88 42.7742 15.08C42.7742 13.96 43.1582 13.08 43.9262 12.44C44.7102 11.784 45.7662 11.456 47.0942 11.456C47.6702 11.456 48.1262 11.504 48.4622 11.6C48.7982 11.696 48.9902 11.752 49.0382 11.768C49.3422 11.88 49.5822 11.936 49.7582 11.936C49.9342 11.936 50.0542 11.904 50.1182 11.84C50.1822 11.76 50.2382 11.648 50.2862 11.504H50.8862L51.0542 15.008H50.3342C50.1102 14.16 49.7342 13.496 49.2062 13.016C48.6782 12.536 48.0462 12.296 47.3102 12.296C46.7342 12.296 46.2622 12.432 45.8942 12.704C45.5422 12.976 45.3662 13.328 45.3662 13.76C45.3662 14.192 45.5342 14.536 45.8702 14.792C46.2222 15.032 46.6942 15.256 47.2862 15.464L48.3902 15.8C49.5582 16.184 50.4062 16.656 50.9342 17.216C51.4622 17.76 51.7262 18.48 51.7262 19.376C51.7262 20.544 51.3182 21.488 50.5022 22.208C49.6862 22.928 48.5582 23.288 47.1182 23.288ZM58.8366 23.264C57.0766 23.264 55.7166 22.776 54.7566 21.8C53.8126 20.824 53.3406 19.392 53.3406 17.504C53.3406 15.52 53.8446 14.016 54.8526 12.992C55.8766 11.968 57.2926 11.456 59.1006 11.456C60.4926 11.456 61.5646 11.736 62.3166 12.296C63.0686 12.856 63.4446 13.56 63.4446 14.408C63.4446 14.92 63.3086 15.328 63.0366 15.632C62.7646 15.92 62.3566 16.064 61.8126 16.064C61.3326 16.064 60.9486 15.944 60.6606 15.704C60.3726 15.448 60.2286 15.096 60.2286 14.648C60.2286 14.408 60.3006 14.128 60.4446 13.808C60.5566 13.616 60.6126 13.432 60.6126 13.256C60.6126 12.984 60.4926 12.76 60.2526 12.584C60.0126 12.408 59.6606 12.32 59.1966 12.32C58.4286 12.32 57.8526 12.64 57.4686 13.28C57.1006 13.904 56.9166 15.064 56.9166 16.76C56.9166 18.6 57.1406 19.896 57.5886 20.648C58.0526 21.4 58.7966 21.776 59.8206 21.776C60.6686 21.776 61.3086 21.584 61.7406 21.2C62.1886 20.8 62.5886 20.248 62.9406 19.544L63.6846 19.928C63.3006 20.952 62.7566 21.768 62.0526 22.376C61.3486 22.968 60.2766 23.264 58.8366 23.264ZM72.9028 11.48C73.5748 11.48 74.0948 11.672 74.4628 12.056C74.8468 12.44 75.0388 12.944 75.0388 13.568C75.0388 14.096 74.8948 14.536 74.6068 14.888C74.3188 15.24 73.8868 15.416 73.3108 15.416C72.8308 15.416 72.4468 15.288 72.1588 15.032C71.8708 14.776 71.7268 14.424 71.7268 13.976C71.7268 13.656 71.7908 13.416 71.9188 13.256C72.0628 13.08 72.1348 12.968 72.1348 12.92C72.1348 12.872 72.1108 12.832 72.0628 12.8C72.0148 12.752 71.9508 12.728 71.8708 12.728C71.5988 12.728 71.3108 12.928 71.0068 13.328C70.7188 13.712 70.4708 14.2 70.2628 14.792C70.0548 15.384 69.9508 15.952 69.9508 16.496H69.9268V21.008C69.9268 21.36 69.9668 21.616 70.0468 21.776C70.1428 21.936 70.3108 22.048 70.5508 22.112C70.8068 22.176 71.2148 22.208 71.7748 22.208V23H64.9828V22.208C65.4468 22.208 65.7828 22.176 65.9908 22.112C66.1988 22.048 66.3348 21.936 66.3988 21.776C66.4788 21.616 66.5188 21.36 66.5188 21.008V13.904C66.5188 13.536 66.4708 13.296 66.3748 13.184C66.2948 13.056 66.1108 12.992 65.8228 12.992H65.0308V12.2L68.7988 11.6H69.8308V13.808H69.9028C70.6388 12.256 71.6388 11.48 72.9028 11.48ZM79.0013 10.256C78.4733 10.256 78.0093 10.072 77.6093 9.704C77.2253 9.336 77.0333 8.888 77.0333 8.36C77.0333 7.832 77.2253 7.384 77.6093 7.016C78.0093 6.632 78.4733 6.44 79.0013 6.44C79.5453 6.44 80.0093 6.632 80.3933 7.016C80.7933 7.384 80.9933 7.832 80.9933 8.36C80.9933 8.888 80.7933 9.336 80.3933 9.704C79.9933 10.072 79.5293 10.256 79.0013 10.256ZM75.8573 22.208C76.3213 22.208 76.6573 22.176 76.8652 22.112C77.0733 22.048 77.2093 21.936 77.2733 21.776C77.3533 21.616 77.3933 21.36 77.3933 21.008V13.904C77.3933 13.536 77.3453 13.296 77.2493 13.184C77.1693 13.056 76.9853 12.992 76.6973 12.992H75.9053V12.2L79.7453 11.6H80.8013V21.008C80.8013 21.36 80.8333 21.616 80.8973 21.776C80.9613 21.936 81.0893 22.048 81.2812 22.112C81.4733 22.176 81.7773 22.208 82.1933 22.208V23H75.8573V22.208ZM91.6127 11.456C93.0687 11.456 94.1967 11.936 94.9967 12.896C95.8127 13.84 96.2207 15.232 96.2207 17.072C96.2207 19.104 95.7087 20.648 94.6847 21.704C93.6607 22.76 92.2287 23.288 90.3887 23.288C89.6847 23.288 89.0527 23.2 88.4927 23.024C87.9327 22.864 87.3327 22.616 86.6927 22.28L86.0207 23H84.8447V8.792C84.8447 8.392 84.7967 8.136 84.7007 8.024C84.6047 7.896 84.3807 7.832 84.0287 7.832H83.3567V7.016L87.1967 6.44H88.2527V12.656H88.2767C89.2207 11.856 90.3327 11.456 91.6127 11.456ZM90.1727 22.424C91.0367 22.424 91.6607 22.048 92.0447 21.296C92.4447 20.528 92.6447 19.272 92.6447 17.528C92.6447 14.376 91.8287 12.8 90.1967 12.8C89.8447 12.8 89.5167 12.896 89.2127 13.088C88.9087 13.28 88.5887 13.544 88.2527 13.88V21.512C88.8607 22.12 89.5007 22.424 90.1727 22.424ZM108.694 17.456H101.518C101.566 18.976 101.806 20.08 102.238 20.768C102.67 21.44 103.39 21.776 104.398 21.776C105.902 21.776 106.982 21.032 107.638 19.544L108.454 19.976C108.038 20.968 107.454 21.768 106.702 22.376C105.966 22.968 104.846 23.264 103.342 23.264C101.566 23.264 100.222 22.776 99.3101 21.8C98.3981 20.808 97.9421 19.336 97.9421 17.384C97.9421 15.416 98.4061 13.936 99.3341 12.944C100.262 11.952 101.622 11.456 103.414 11.456C106.934 11.456 108.694 13.384 108.694 17.24V17.456ZM105.118 16.592C105.118 15.552 105.07 14.736 104.974 14.144C104.894 13.536 104.726 13.08 104.47 12.776C104.214 12.472 103.854 12.32 103.39 12.32C102.766 12.32 102.302 12.64 101.998 13.28C101.694 13.904 101.534 15.008 101.518 16.592H105.118Z" fill="black" fill-opacity="0.99"/>
</svg>
