<svg width="236" height="49" viewBox="0 0 236 49" fill="none" xmlns="http://www.w3.org/2000/svg">
<path d="M1.84244 3.152C1.69844 2.688 1.51444 2.376 1.29044 2.216C1.08244 2.04 0.706438 1.952 0.162438 1.952V1.16H7.09844V1.952H6.13844C5.88244 1.952 5.69844 1.992 5.58644 2.072C5.49044 2.136 5.44244 2.264 5.44244 2.456C5.44244 2.584 5.46644 2.744 5.51444 2.936L8.05844 12.368H8.13044L11.2744 1.496H13.6744L16.8424 12.272H16.9144L19.2424 3.08C19.3064 2.872 19.3384 2.672 19.3384 2.48C19.3384 2.304 19.2744 2.176 19.1464 2.096C19.0344 2 18.8344 1.952 18.5464 1.952H17.4904V1.16H22.1464V1.952C21.7464 1.952 21.4344 2.008 21.2104 2.12C20.9864 2.216 20.7944 2.408 20.6344 2.696C20.4904 2.968 20.3464 3.384 20.2024 3.944L16.6504 17H14.6344L11.1544 5.408H11.1064L7.65044 17H5.73044L1.84244 3.152ZM35.0978 15.008C35.0978 15.36 35.1298 15.616 35.1938 15.776C35.2578 15.936 35.3858 16.048 35.5778 16.112C35.7858 16.176 36.1138 16.208 36.5618 16.208V17H30.4418V16.208C30.8258 16.208 31.0978 16.184 31.2578 16.136C31.4338 16.072 31.5458 15.968 31.5938 15.824C31.6578 15.68 31.6898 15.448 31.6898 15.128V9.368C31.6898 8.52 31.5378 7.904 31.2338 7.52C30.9458 7.12 30.5058 6.92 29.9138 6.92C29.5138 6.92 29.1458 7.016 28.8098 7.208C28.4898 7.384 28.1378 7.68 27.7538 8.096V15.056C27.7538 15.392 27.7858 15.64 27.8498 15.8C27.9138 15.944 28.0338 16.048 28.2098 16.112C28.3858 16.176 28.6738 16.208 29.0738 16.208V17H22.8098V16.208C23.2738 16.208 23.6098 16.176 23.8178 16.112C24.0258 16.048 24.1618 15.936 24.2258 15.776C24.3058 15.616 24.3458 15.36 24.3458 15.008V2.744C24.3458 2.376 24.2978 2.136 24.2018 2.024C24.1218 1.896 23.9378 1.832 23.6498 1.832H22.8578V1.04L26.6978 0.439999H27.7538V7.088H27.8018C28.9538 6 30.2258 5.456 31.6178 5.456C32.7218 5.456 33.5778 5.768 34.1858 6.392C34.7938 7.016 35.0978 7.96 35.0978 9.224V15.008ZM49.3199 16.496C48.5199 17.008 47.5599 17.264 46.4399 17.264C45.8319 17.264 45.3439 17.16 44.9759 16.952C44.6079 16.744 44.3679 16.456 44.2559 16.088C43.2639 16.872 42.1359 17.264 40.8719 17.264C39.8159 17.264 38.9999 17.048 38.4239 16.616C37.8479 16.184 37.5599 15.552 37.5599 14.72C37.5599 13.648 38.1439 12.736 39.3119 11.984C40.4799 11.232 42.1039 10.664 44.1839 10.28V8.48C44.1679 7.776 44.0319 7.264 43.7759 6.944C43.5199 6.608 43.0559 6.44 42.3839 6.44C41.9999 6.44 41.6719 6.504 41.3999 6.632C41.1279 6.744 40.9919 6.888 40.9919 7.064C40.9919 7.192 41.0719 7.352 41.2319 7.544C41.3599 7.704 41.4479 7.84 41.4959 7.952C41.5599 8.064 41.5919 8.224 41.5919 8.432C41.5919 8.848 41.4399 9.208 41.1359 9.512C40.8319 9.8 40.4319 9.944 39.9359 9.944C39.4239 9.944 39.0159 9.8 38.7119 9.512C38.4239 9.208 38.2799 8.856 38.2799 8.456C38.2799 7.96 38.4639 7.488 38.8319 7.04C39.2159 6.592 39.8079 6.224 40.6079 5.936C41.4079 5.632 42.4079 5.48 43.6079 5.48C44.9839 5.48 45.9839 5.792 46.6079 6.416C47.2479 7.024 47.5679 7.992 47.5679 9.32V14.6C47.5679 15.176 47.6159 15.56 47.7119 15.752C47.8239 15.944 47.9999 16.04 48.2399 16.04C48.4479 16.04 48.6239 16.008 48.7679 15.944C48.9279 15.864 49.0239 15.816 49.0559 15.8L49.3199 16.496ZM40.9439 14.168C40.9439 14.744 41.0639 15.168 41.3039 15.44C41.5599 15.696 41.9519 15.824 42.4799 15.824C42.9919 15.824 43.5599 15.592 44.1839 15.128V11.264C43.0639 11.568 42.2399 11.952 41.7119 12.416C41.1999 12.88 40.9439 13.464 40.9439 14.168ZM54.1761 17.288C53.1361 17.288 52.3441 17.008 51.8001 16.448C51.2721 15.888 51.0081 14.992 51.0081 13.76V6.584H49.5681V5.792C50.4961 5.632 51.3281 5.144 52.0641 4.328C52.8001 3.512 53.3201 2.56 53.6241 1.472H54.4161V5.72H56.7681V6.584H54.4161V13.616C54.4161 14.384 54.5201 14.952 54.7281 15.32C54.9361 15.672 55.2801 15.848 55.7601 15.848C56.0001 15.848 56.2241 15.808 56.4321 15.728C56.6401 15.632 56.8641 15.52 57.1041 15.392L57.5121 16.064C57.4481 16.112 57.2481 16.256 56.9121 16.496C56.5921 16.72 56.1921 16.904 55.7121 17.048C55.2321 17.208 54.7201 17.288 54.1761 17.288ZM63.4058 16.208C63.8698 16.208 64.2058 16.176 64.4138 16.112C64.6218 16.048 64.7578 15.936 64.8218 15.776C64.9018 15.616 64.9418 15.36 64.9418 15.008V6.584H63.4058V5.72H64.9418V4.448C64.9418 3.152 65.3578 2.104 66.1898 1.304C67.0378 0.503999 68.1578 0.103999 69.5498 0.103999C70.5738 0.103999 71.3978 0.327999 72.0218 0.775999C72.6458 1.208 72.9578 1.792 72.9578 2.528C72.9578 2.992 72.8298 3.368 72.5738 3.656C72.3178 3.928 71.9418 4.064 71.4458 4.064C70.9818 4.064 70.6138 3.936 70.3418 3.68C70.0698 3.424 69.9338 3.088 69.9338 2.672C69.9338 2.4 69.9738 2.2 70.0538 2.072C70.1498 1.928 70.2058 1.848 70.2218 1.832C70.3658 1.656 70.4378 1.496 70.4378 1.352C70.4378 1.176 70.3658 1.04 70.2218 0.943999C70.0938 0.831999 69.9178 0.775999 69.6938 0.775999C68.7978 0.775999 68.3498 1.616 68.3498 3.296V5.72H70.7018V6.584H68.3498V15.008C68.3498 15.376 68.3978 15.64 68.4938 15.8C68.5898 15.96 68.7738 16.072 69.0458 16.136C69.3178 16.184 69.7578 16.208 70.3658 16.208V17H63.4058V16.208ZM77.6358 17.264C75.6198 17.264 74.1238 16.784 73.1478 15.824C72.1718 14.864 71.6838 13.384 71.6838 11.384C71.6838 9.368 72.1718 7.872 73.1478 6.896C74.1398 5.92 75.6518 5.432 77.6838 5.432C79.6838 5.432 81.1638 5.912 82.1238 6.872C83.0838 7.832 83.5638 9.32 83.5638 11.336C83.5638 13.368 83.0758 14.864 82.0998 15.824C81.1398 16.784 79.6518 17.264 77.6358 17.264ZM77.6598 16.424C78.4758 16.424 79.0678 16.04 79.4358 15.272C79.8038 14.504 79.9878 13.304 79.9878 11.672C79.9878 9.784 79.8038 8.416 79.4358 7.568C79.0678 6.72 78.4598 6.296 77.6118 6.296C76.7798 6.296 76.1798 6.72 75.8118 7.568C75.4438 8.4 75.2598 9.68 75.2598 11.408C75.2598 13.184 75.4438 14.464 75.8118 15.248C76.1798 16.032 76.7958 16.424 77.6598 16.424ZM92.9575 5.48C93.6295 5.48 94.1495 5.672 94.5175 6.056C94.9015 6.44 95.0935 6.944 95.0935 7.568C95.0935 8.096 94.9495 8.536 94.6615 8.888C94.3735 9.24 93.9415 9.416 93.3655 9.416C92.8855 9.416 92.5015 9.288 92.2135 9.032C91.9255 8.776 91.7815 8.424 91.7815 7.976C91.7815 7.656 91.8455 7.416 91.9735 7.256C92.1175 7.08 92.1895 6.968 92.1895 6.92C92.1895 6.872 92.1655 6.832 92.1175 6.8C92.0695 6.752 92.0055 6.728 91.9255 6.728C91.6535 6.728 91.3655 6.928 91.0615 7.328C90.7735 7.712 90.5255 8.2 90.3175 8.792C90.1095 9.384 90.0055 9.952 90.0055 10.496H89.9815V15.008C89.9815 15.36 90.0215 15.616 90.1015 15.776C90.1975 15.936 90.3655 16.048 90.6055 16.112C90.8615 16.176 91.2695 16.208 91.8295 16.208V17H85.0375V16.208C85.5015 16.208 85.8375 16.176 86.0455 16.112C86.2535 16.048 86.3895 15.936 86.4535 15.776C86.5335 15.616 86.5735 15.36 86.5735 15.008V7.904C86.5735 7.536 86.5255 7.296 86.4295 7.184C86.3495 7.056 86.1655 6.992 85.8775 6.992H85.0855V6.2L88.8535 5.6H89.8855V7.808H89.9575C90.6935 6.256 91.6935 5.48 92.9575 5.48ZM115.238 15.008C115.238 15.36 115.27 15.616 115.334 15.776C115.398 15.936 115.526 16.048 115.718 16.112C115.926 16.176 116.246 16.208 116.678 16.208V17H110.558V16.208C110.942 16.208 111.222 16.184 111.398 16.136C111.574 16.088 111.686 15.992 111.734 15.848C111.798 15.688 111.83 15.448 111.83 15.128V9.368C111.83 7.736 111.222 6.92 110.006 6.92C109.094 6.92 108.406 7.44 107.942 8.48V15.008C107.942 15.36 107.966 15.616 108.014 15.776C108.078 15.936 108.198 16.048 108.374 16.112C108.55 16.176 108.838 16.208 109.238 16.208V17H103.286V16.208C103.67 16.208 103.942 16.184 104.102 16.136C104.278 16.088 104.39 15.992 104.438 15.848C104.502 15.704 104.534 15.464 104.534 15.128V9.368C104.534 8.52 104.382 7.904 104.078 7.52C103.79 7.12 103.35 6.92 102.758 6.92C102.358 6.92 101.998 7.008 101.678 7.184C101.358 7.36 101.014 7.648 100.646 8.048V15.056C100.646 15.408 100.678 15.664 100.742 15.824C100.822 15.984 100.95 16.088 101.126 16.136C101.302 16.184 101.582 16.208 101.966 16.208V17H95.7016V16.208C96.1656 16.208 96.5016 16.176 96.7096 16.112C96.9176 16.048 97.0536 15.936 97.1176 15.776C97.1976 15.616 97.2376 15.36 97.2376 15.008V7.904C97.2376 7.536 97.1896 7.296 97.0936 7.184C97.0136 7.056 96.8296 6.992 96.5416 6.992H95.7496V6.2L99.5176 5.6H100.55V7.136H100.598C101.718 6.016 103.006 5.456 104.462 5.456C105.294 5.456 105.99 5.632 106.55 5.984C107.126 6.336 107.526 6.792 107.75 7.352C108.15 6.728 108.678 6.256 109.334 5.936C109.99 5.616 110.75 5.456 111.614 5.456C112.766 5.456 113.654 5.768 114.278 6.392C114.918 7 115.238 7.944 115.238 9.224V15.008ZM129.429 16.496C128.629 17.008 127.669 17.264 126.549 17.264C125.941 17.264 125.453 17.16 125.085 16.952C124.717 16.744 124.477 16.456 124.365 16.088C123.373 16.872 122.245 17.264 120.981 17.264C119.925 17.264 119.109 17.048 118.533 16.616C117.957 16.184 117.669 15.552 117.669 14.72C117.669 13.648 118.253 12.736 119.421 11.984C120.589 11.232 122.213 10.664 124.293 10.28V8.48C124.277 7.776 124.141 7.264 123.885 6.944C123.629 6.608 123.165 6.44 122.493 6.44C122.109 6.44 121.781 6.504 121.509 6.632C121.237 6.744 121.101 6.888 121.101 7.064C121.101 7.192 121.181 7.352 121.341 7.544C121.469 7.704 121.557 7.84 121.605 7.952C121.669 8.064 121.701 8.224 121.701 8.432C121.701 8.848 121.549 9.208 121.245 9.512C120.941 9.8 120.541 9.944 120.045 9.944C119.533 9.944 119.125 9.8 118.821 9.512C118.533 9.208 118.389 8.856 118.389 8.456C118.389 7.96 118.573 7.488 118.941 7.04C119.325 6.592 119.917 6.224 120.717 5.936C121.517 5.632 122.517 5.48 123.717 5.48C125.093 5.48 126.093 5.792 126.717 6.416C127.357 7.024 127.677 7.992 127.677 9.32V14.6C127.677 15.176 127.725 15.56 127.821 15.752C127.933 15.944 128.109 16.04 128.349 16.04C128.557 16.04 128.733 16.008 128.877 15.944C129.037 15.864 129.133 15.816 129.165 15.8L129.429 16.496ZM121.053 14.168C121.053 14.744 121.173 15.168 121.413 15.44C121.669 15.696 122.061 15.824 122.589 15.824C123.101 15.824 123.669 15.592 124.293 15.128V11.264C123.173 11.568 122.349 11.952 121.821 12.416C121.309 12.88 121.053 13.464 121.053 14.168ZM134.286 17.288C133.246 17.288 132.454 17.008 131.91 16.448C131.382 15.888 131.118 14.992 131.118 13.76V6.584H129.678V5.792C130.606 5.632 131.438 5.144 132.174 4.328C132.91 3.512 133.43 2.56 133.734 1.472H134.526V5.72H136.878V6.584H134.526V13.616C134.526 14.384 134.63 14.952 134.838 15.32C135.046 15.672 135.39 15.848 135.87 15.848C136.11 15.848 136.334 15.808 136.542 15.728C136.75 15.632 136.974 15.52 137.214 15.392L137.622 16.064C137.558 16.112 137.358 16.256 137.022 16.496C136.702 16.72 136.302 16.904 135.822 17.048C135.342 17.208 134.83 17.288 134.286 17.288ZM154.191 5.72V6.512C153.775 6.512 153.455 6.592 153.231 6.752C153.023 6.912 152.807 7.272 152.583 7.832L148.959 16.712C148.735 17.256 148.575 17.664 148.479 17.936C148.079 18.928 147.735 19.688 147.447 20.216C147.175 20.76 146.823 21.2 146.391 21.536C145.959 21.888 145.415 22.064 144.759 22.064C144.103 22.064 143.535 21.856 143.055 21.44C142.591 21.024 142.359 20.52 142.359 19.928C142.359 19.48 142.503 19.096 142.791 18.776C143.095 18.456 143.479 18.296 143.943 18.296C144.391 18.296 144.743 18.432 144.999 18.704C145.271 18.976 145.407 19.32 145.407 19.736C145.407 20.008 145.335 20.232 145.191 20.408C145.063 20.584 144.999 20.712 144.999 20.792C144.999 20.904 145.039 20.992 145.119 21.056C145.199 21.12 145.303 21.152 145.431 21.152C146.007 21.152 146.583 20.384 147.159 18.848L147.663 17.504L143.535 7.496C143.407 7.176 143.287 6.952 143.175 6.824C143.079 6.696 142.935 6.616 142.743 6.584C142.567 6.536 142.279 6.512 141.879 6.512V5.72H148.263V6.512H147.519C147.199 6.512 147.039 6.656 147.039 6.944C147.039 6.992 147.071 7.128 147.135 7.352L149.295 13.16H149.343L151.599 7.232C151.631 7.104 151.647 7.008 151.647 6.944C151.647 6.656 151.487 6.512 151.167 6.512H150.375V5.72H154.191ZM159.972 17.264C157.956 17.264 156.46 16.784 155.484 15.824C154.508 14.864 154.02 13.384 154.02 11.384C154.02 9.368 154.508 7.872 155.484 6.896C156.476 5.92 157.988 5.432 160.02 5.432C162.02 5.432 163.5 5.912 164.46 6.872C165.42 7.832 165.9 9.32 165.9 11.336C165.9 13.368 165.412 14.864 164.436 15.824C163.476 16.784 161.988 17.264 159.972 17.264ZM159.996 16.424C160.812 16.424 161.404 16.04 161.772 15.272C162.14 14.504 162.324 13.304 162.324 11.672C162.324 9.784 162.14 8.416 161.772 7.568C161.404 6.72 160.796 6.296 159.948 6.296C159.116 6.296 158.516 6.72 158.148 7.568C157.78 8.4 157.596 9.68 157.596 11.408C157.596 13.184 157.78 14.464 158.148 15.248C158.516 16.032 159.132 16.424 159.996 16.424ZM179.541 15.272C179.541 15.56 179.573 15.768 179.637 15.896C179.701 16.024 179.829 16.112 180.021 16.16C180.213 16.192 180.533 16.208 180.981 16.208V17H176.229V15.464H176.157C174.989 16.68 173.669 17.288 172.197 17.288C171.093 17.288 170.245 16.984 169.653 16.376C169.061 15.752 168.765 14.816 168.765 13.568V7.856C168.765 7.488 168.717 7.248 168.621 7.136C168.541 7.008 168.357 6.944 168.069 6.944H167.277V6.152L171.093 5.6H172.173V13.28C172.173 14.16 172.325 14.8 172.629 15.2C172.933 15.6 173.373 15.8 173.949 15.8C174.317 15.8 174.669 15.704 175.005 15.512C175.341 15.304 175.717 15 176.133 14.6V7.856C176.133 7.488 176.085 7.248 175.989 7.136C175.909 7.008 175.725 6.944 175.437 6.944H174.645V6.152L178.461 5.6H179.541V15.272ZM186.395 7.4C186.283 7.048 186.139 6.816 185.963 6.704C185.787 6.576 185.507 6.512 185.123 6.512V5.72H190.955V6.512H190.283C189.947 6.512 189.779 6.656 189.779 6.944C189.779 7.04 189.803 7.176 189.851 7.352L191.459 13.136H191.507L193.907 5.792H196.139L198.467 13.088H198.515L200.123 7.304C200.155 7.208 200.171 7.096 200.171 6.968C200.171 6.792 200.123 6.672 200.027 6.608C199.931 6.544 199.779 6.512 199.571 6.512H198.947V5.72H202.763V6.512C202.315 6.512 201.987 6.592 201.779 6.752C201.571 6.896 201.411 7.144 201.299 7.496L198.275 17H196.643L193.979 9.2H193.859L191.147 17H189.515L186.395 7.4ZM206.681 4.256C206.153 4.256 205.689 4.072 205.289 3.704C204.905 3.336 204.713 2.888 204.713 2.36C204.713 1.832 204.905 1.384 205.289 1.016C205.689 0.631999 206.153 0.439999 206.681 0.439999C207.225 0.439999 207.689 0.631999 208.073 1.016C208.473 1.384 208.673 1.832 208.673 2.36C208.673 2.888 208.473 3.336 208.073 3.704C207.673 4.072 207.209 4.256 206.681 4.256ZM203.537 16.208C204.001 16.208 204.337 16.176 204.545 16.112C204.753 16.048 204.889 15.936 204.953 15.776C205.033 15.616 205.073 15.36 205.073 15.008V7.904C205.073 7.536 205.025 7.296 204.929 7.184C204.849 7.056 204.665 6.992 204.377 6.992H203.585V6.2L207.425 5.6H208.481V15.008C208.481 15.36 208.513 15.616 208.577 15.776C208.641 15.936 208.769 16.048 208.961 16.112C209.153 16.176 209.457 16.208 209.873 16.208V17H203.537V16.208ZM215.86 17.288C215.092 17.288 214.364 17.152 213.676 16.88C213.292 16.752 213.02 16.688 212.86 16.688C212.604 16.688 212.388 16.8 212.212 17.024H211.636L211.42 13.112H212.188C212.38 14.136 212.788 14.944 213.412 15.536C214.052 16.128 214.82 16.424 215.716 16.424C216.34 16.424 216.852 16.28 217.252 15.992C217.668 15.688 217.876 15.248 217.876 14.672C217.876 14.224 217.732 13.872 217.444 13.616C217.156 13.36 216.644 13.096 215.908 12.824L214.636 12.464C213.516 12.08 212.716 11.624 212.236 11.096C211.756 10.552 211.516 9.88 211.516 9.08C211.516 7.96 211.9 7.08 212.668 6.44C213.452 5.784 214.508 5.456 215.836 5.456C216.412 5.456 216.868 5.504 217.204 5.6C217.54 5.696 217.732 5.752 217.78 5.768C218.084 5.88 218.324 5.936 218.5 5.936C218.676 5.936 218.796 5.904 218.86 5.84C218.924 5.76 218.98 5.648 219.028 5.504H219.628L219.796 9.008H219.076C218.852 8.16 218.476 7.496 217.948 7.016C217.42 6.536 216.788 6.296 216.052 6.296C215.476 6.296 215.004 6.432 214.636 6.704C214.284 6.976 214.108 7.328 214.108 7.76C214.108 8.192 214.276 8.536 214.612 8.792C214.964 9.032 215.436 9.256 216.028 9.464L217.132 9.8C218.3 10.184 219.148 10.656 219.676 11.216C220.204 11.76 220.468 12.48 220.468 13.376C220.468 14.544 220.06 15.488 219.244 16.208C218.428 16.928 217.3 17.288 215.86 17.288ZM234.059 15.008C234.059 15.36 234.091 15.616 234.155 15.776C234.219 15.936 234.347 16.048 234.539 16.112C234.747 16.176 235.075 16.208 235.523 16.208V17H229.403V16.208C229.787 16.208 230.059 16.184 230.219 16.136C230.395 16.072 230.507 15.968 230.555 15.824C230.619 15.68 230.651 15.448 230.651 15.128V9.368C230.651 8.52 230.499 7.904 230.195 7.52C229.907 7.12 229.467 6.92 228.875 6.92C228.475 6.92 228.107 7.016 227.771 7.208C227.451 7.384 227.099 7.68 226.715 8.096V15.056C226.715 15.392 226.747 15.64 226.811 15.8C226.875 15.944 226.995 16.048 227.171 16.112C227.347 16.176 227.635 16.208 228.035 16.208V17H221.771V16.208C222.235 16.208 222.571 16.176 222.779 16.112C222.987 16.048 223.123 15.936 223.187 15.776C223.267 15.616 223.307 15.36 223.307 15.008V2.744C223.307 2.376 223.259 2.136 223.163 2.024C223.083 1.896 222.899 1.832 222.611 1.832H221.819V1.04L225.659 0.439999H226.715V7.088H226.763C227.915 6 229.187 5.456 230.579 5.456C231.683 5.456 232.539 5.768 233.147 6.392C233.755 7.016 234.059 7.96 234.059 9.224V15.008ZM63.5394 48.288C62.4994 48.288 61.7074 48.008 61.1634 47.448C60.6354 46.888 60.3714 45.992 60.3714 44.76V37.584H58.9314V36.792C59.8594 36.632 60.6914 36.144 61.4274 35.328C62.1634 34.512 62.6834 33.56 62.9874 32.472H63.7794V36.72H66.1314V37.584H63.7794V44.616C63.7794 45.384 63.8834 45.952 64.0914 46.32C64.2994 46.672 64.6434 46.848 65.1234 46.848C65.3634 46.848 65.5874 46.808 65.7954 46.728C66.0034 46.632 66.2274 46.52 66.4674 46.392L66.8754 47.064C66.8114 47.112 66.6114 47.256 66.2754 47.496C65.9554 47.72 65.5554 47.904 65.0754 48.048C64.5954 48.208 64.0834 48.288 63.5394 48.288ZM73.5928 48.264C71.5768 48.264 70.0808 47.784 69.1048 46.824C68.1288 45.864 67.6408 44.384 67.6408 42.384C67.6408 40.368 68.1288 38.872 69.1048 37.896C70.0968 36.92 71.6088 36.432 73.6408 36.432C75.6408 36.432 77.1208 36.912 78.0808 37.872C79.0408 38.832 79.5208 40.32 79.5208 42.336C79.5208 44.368 79.0328 45.864 78.0568 46.824C77.0968 47.784 75.6088 48.264 73.5928 48.264ZM73.6168 47.424C74.4328 47.424 75.0248 47.04 75.3928 46.272C75.7608 45.504 75.9448 44.304 75.9448 42.672C75.9448 40.784 75.7608 39.416 75.3928 38.568C75.0248 37.72 74.4168 37.296 73.5688 37.296C72.7368 37.296 72.1368 37.72 71.7688 38.568C71.4008 39.4 71.2168 40.68 71.2168 42.408C71.2168 44.184 71.4008 45.464 71.7688 46.248C72.1368 47.032 72.7528 47.424 73.6168 47.424ZM94.2348 36.48C94.9068 36.48 95.4268 36.672 95.7948 37.056C96.1788 37.44 96.3708 37.944 96.3708 38.568C96.3708 39.096 96.2268 39.536 95.9388 39.888C95.6508 40.24 95.2188 40.416 94.6428 40.416C94.1628 40.416 93.7788 40.288 93.4908 40.032C93.2028 39.776 93.0588 39.424 93.0588 38.976C93.0588 38.656 93.1228 38.416 93.2508 38.256C93.3948 38.08 93.4668 37.968 93.4668 37.92C93.4668 37.872 93.4428 37.832 93.3948 37.8C93.3468 37.752 93.2828 37.728 93.2028 37.728C92.9308 37.728 92.6428 37.928 92.3388 38.328C92.0508 38.712 91.8028 39.2 91.5948 39.792C91.3868 40.384 91.2828 40.952 91.2828 41.496H91.2588V46.008C91.2588 46.36 91.2988 46.616 91.3788 46.776C91.4748 46.936 91.6428 47.048 91.8828 47.112C92.1388 47.176 92.5468 47.208 93.1068 47.208V48H86.3148V47.208C86.7788 47.208 87.1148 47.176 87.3228 47.112C87.5308 47.048 87.6668 46.936 87.7308 46.776C87.8108 46.616 87.8508 46.36 87.8508 46.008V38.904C87.8508 38.536 87.8028 38.296 87.7068 38.184C87.6268 38.056 87.4428 37.992 87.1548 37.992H86.3628V37.2L90.1308 36.6H91.1628V38.808H91.2348C91.9708 37.256 92.9708 36.48 94.2348 36.48ZM107.761 42.456H100.585C100.633 43.976 100.873 45.08 101.305 45.768C101.737 46.44 102.457 46.776 103.465 46.776C104.969 46.776 106.049 46.032 106.705 44.544L107.521 44.976C107.105 45.968 106.521 46.768 105.769 47.376C105.033 47.968 103.913 48.264 102.409 48.264C100.633 48.264 99.2885 47.776 98.3765 46.8C97.4645 45.808 97.0085 44.336 97.0085 42.384C97.0085 40.416 97.4725 38.936 98.4005 37.944C99.3285 36.952 100.689 36.456 102.481 36.456C106.001 36.456 107.761 38.384 107.761 42.24V42.456ZM104.185 41.592C104.185 40.552 104.137 39.736 104.041 39.144C103.961 38.536 103.793 38.08 103.537 37.776C103.281 37.472 102.921 37.32 102.457 37.32C101.833 37.32 101.369 37.64 101.065 38.28C100.761 38.904 100.601 40.008 100.585 41.592H104.185ZM114.973 48.264C113.213 48.264 111.853 47.776 110.893 46.8C109.949 45.824 109.477 44.392 109.477 42.504C109.477 40.52 109.981 39.016 110.989 37.992C112.013 36.968 113.429 36.456 115.237 36.456C116.629 36.456 117.701 36.736 118.453 37.296C119.205 37.856 119.581 38.56 119.581 39.408C119.581 39.92 119.445 40.328 119.173 40.632C118.901 40.92 118.493 41.064 117.949 41.064C117.469 41.064 117.085 40.944 116.797 40.704C116.509 40.448 116.365 40.096 116.365 39.648C116.365 39.408 116.437 39.128 116.581 38.808C116.693 38.616 116.749 38.432 116.749 38.256C116.749 37.984 116.629 37.76 116.389 37.584C116.149 37.408 115.797 37.32 115.333 37.32C114.565 37.32 113.989 37.64 113.605 38.28C113.237 38.904 113.053 40.064 113.053 41.76C113.053 43.6 113.277 44.896 113.725 45.648C114.189 46.4 114.933 46.776 115.957 46.776C116.805 46.776 117.445 46.584 117.877 46.2C118.325 45.8 118.725 45.248 119.077 44.544L119.821 44.928C119.437 45.952 118.893 46.768 118.189 47.376C117.485 47.968 116.413 48.264 114.973 48.264ZM132.136 42.456H124.96C125.008 43.976 125.248 45.08 125.68 45.768C126.112 46.44 126.832 46.776 127.84 46.776C129.344 46.776 130.424 46.032 131.08 44.544L131.896 44.976C131.48 45.968 130.896 46.768 130.144 47.376C129.408 47.968 128.288 48.264 126.784 48.264C125.008 48.264 123.664 47.776 122.752 46.8C121.84 45.808 121.384 44.336 121.384 42.384C121.384 40.416 121.848 38.936 122.776 37.944C123.704 36.952 125.064 36.456 126.856 36.456C130.376 36.456 132.136 38.384 132.136 42.24V42.456ZM128.56 41.592C128.56 40.552 128.512 39.736 128.416 39.144C128.336 38.536 128.168 38.08 127.912 37.776C127.656 37.472 127.296 37.32 126.832 37.32C126.208 37.32 125.744 37.64 125.44 38.28C125.136 38.904 124.976 40.008 124.96 41.592H128.56ZM136.708 35.256C136.18 35.256 135.716 35.072 135.316 34.704C134.932 34.336 134.74 33.888 134.74 33.36C134.74 32.832 134.932 32.384 135.316 32.016C135.716 31.632 136.18 31.44 136.708 31.44C137.252 31.44 137.716 31.632 138.1 32.016C138.5 32.384 138.7 32.832 138.7 33.36C138.7 33.888 138.5 34.336 138.1 34.704C137.7 35.072 137.236 35.256 136.708 35.256ZM133.564 47.208C134.028 47.208 134.364 47.176 134.572 47.112C134.78 47.048 134.916 46.936 134.98 46.776C135.06 46.616 135.1 46.36 135.1 46.008V38.904C135.1 38.536 135.052 38.296 134.956 38.184C134.876 38.056 134.692 37.992 134.404 37.992H133.612V37.2L137.452 36.6H138.508V46.008C138.508 46.36 138.54 46.616 138.604 46.776C138.668 46.936 138.796 47.048 138.988 47.112C139.18 47.176 139.484 47.208 139.9 47.208V48H133.564V47.208ZM141.832 38.4C141.688 38.048 141.52 37.816 141.328 37.704C141.152 37.576 140.848 37.512 140.416 37.512V36.72H146.56V37.512H145.624C145.32 37.512 145.168 37.632 145.168 37.872C145.168 37.984 145.184 38.08 145.216 38.16L147.76 44.64H147.808L150.328 38.208C150.36 38.08 150.376 37.984 150.376 37.92C150.376 37.648 150.216 37.512 149.896 37.512H149.008V36.72H152.896V37.512C152.48 37.512 152.168 37.584 151.96 37.728C151.752 37.856 151.576 38.112 151.432 38.496L147.448 48H145.696L141.832 38.4ZM163.729 42.456H156.553C156.601 43.976 156.841 45.08 157.273 45.768C157.705 46.44 158.425 46.776 159.433 46.776C160.937 46.776 162.017 46.032 162.673 44.544L163.489 44.976C163.073 45.968 162.489 46.768 161.737 47.376C161.001 47.968 159.881 48.264 158.377 48.264C156.601 48.264 155.257 47.776 154.345 46.8C153.433 45.808 152.977 44.336 152.977 42.384C152.977 40.416 153.441 38.936 154.369 37.944C155.297 36.952 156.657 36.456 158.449 36.456C161.969 36.456 163.729 38.384 163.729 42.24V42.456ZM160.153 41.592C160.153 40.552 160.105 39.736 160.009 39.144C159.929 38.536 159.761 38.08 159.505 37.776C159.249 37.472 158.889 37.32 158.425 37.32C157.801 37.32 157.337 37.64 157.033 38.28C156.729 38.904 156.569 40.008 156.553 41.592H160.153ZM169.718 42.48C169.718 41.488 169.838 40.696 170.078 40.104C170.318 39.512 170.678 38.872 171.158 38.184C171.558 37.608 171.854 37.096 172.046 36.648C172.254 36.184 172.358 35.6 172.358 34.896C172.358 34.08 172.214 33.48 171.926 33.096C171.638 32.712 171.254 32.52 170.774 32.52C170.358 32.52 169.998 32.632 169.694 32.856C169.39 33.064 169.238 33.336 169.238 33.672C169.238 33.8 169.262 33.912 169.31 34.008C169.358 34.088 169.43 34.184 169.526 34.296C169.638 34.44 169.726 34.584 169.79 34.728C169.854 34.856 169.886 35.024 169.886 35.232C169.886 35.712 169.718 36.104 169.382 36.408C169.062 36.712 168.63 36.864 168.086 36.864C167.51 36.864 167.054 36.688 166.718 36.336C166.398 35.968 166.238 35.496 166.238 34.92C166.238 33.88 166.742 33.12 167.75 32.64C168.774 32.144 169.926 31.896 171.206 31.896C172.47 31.896 173.566 32.16 174.494 32.688C175.422 33.2 175.886 34.032 175.886 35.184C175.886 35.744 175.766 36.24 175.526 36.672C175.302 37.104 175.014 37.472 174.662 37.776C174.326 38.08 173.862 38.44 173.27 38.856C172.694 39.256 172.23 39.608 171.878 39.912C171.542 40.216 171.254 40.584 171.014 41.016C170.79 41.432 170.678 41.92 170.678 42.48V43.176H169.718V42.48ZM170.294 48.216C169.782 48.216 169.342 48.04 168.974 47.688C168.622 47.32 168.446 46.888 168.446 46.392C168.446 45.88 168.63 45.448 168.998 45.096C169.366 44.728 169.798 44.544 170.294 44.544C170.79 44.544 171.222 44.728 171.59 45.096C171.958 45.448 172.142 45.872 172.142 46.368C172.142 46.88 171.958 47.32 171.59 47.688C171.238 48.04 170.806 48.216 170.294 48.216Z" fill="black" fill-opacity="0.99"/>
</svg>
